PathFileType	4	(X/Y/Z)	C:\Users\italobelli\Desktop\GitHub\PTbot_officialCBL\Personal_Results\SHRUG02_noisy2.trc
DataRate	CameraRate	NumFrames	NumMarkers	Units	OrigDataRate	OrigDataStartFrame	OrigNumFrames
112.250000	112.250000	16	9	m	112.250000	282	450
Frame#	Time		gu		centelbow		EpL		centpxt8		centijc7		ij		ts		aa		ai
			X1	Y1	Z1	X2	Y2	Z2	X3	Y3	Z3	X4	Y4	Z4	X5	Y5	Z5	X6	Y6	Z6	X7	Y7	Z7	X8	Y8	Z8	X9	Y9	Z9

282	2.5033	-0.07898	-0.012296	0.16396	-0.11759	-0.25697	0.20983	-0.094099	-0.25199	0.23136	-0.046816	-0.15316	-0.008669	-0.046816	0.031938	-0.008669	0	0	0	-0.13887	0.028904	0.055676	-0.10589	0.025782	0.17024	-0.16123	-0.082036	0.064473
283	2.5122	-0.079081	-0.012315	0.16399	-0.11779	-0.25701	0.20967	-0.094329	-0.25203	0.23125	-0.046816	-0.15316	-0.008669	-0.046816	0.031938	-0.008669	0	0	0	-0.13888	0.028909	0.055711	-0.10595	0.025741	0.17028	-0.16125	-0.08203	0.064357
284	2.5212	-0.07918	-0.012333	0.16401	-0.11799	-0.25704	0.20951	-0.09456	-0.25206	0.23115	-0.046816	-0.15316	-0.008669	-0.046816	0.031938	-0.008669	0	0	0	-0.13888	0.028916	0.055741	-0.106	0.025702	0.17031	-0.16127	-0.082023	0.064243
285	2.5301	-0.079279	-0.012351	0.16402	-0.11819	-0.25707	0.20935	-0.094791	-0.25208	0.23104	-0.046816	-0.15316	-0.008669	-0.046816	0.031938	-0.008669	0	0	0	-0.13889	0.028925	0.055765	-0.10605	0.025664	0.17033	-0.16129	-0.082014	0.064129
286	2.539	-0.079376	-0.012369	0.16403	-0.11838	-0.2571	0.20919	-0.095023	-0.2521	0.23093	-0.046816	-0.15316	-0.008669	-0.046816	0.031938	-0.008669	0	0	0	-0.13889	0.028936	0.055785	-0.1061	0.025626	0.17035	-0.16131	-0.082004	0.064017
287	2.5479	-0.079473	-0.012386	0.16404	-0.11858	-0.25712	0.20903	-0.095255	-0.25212	0.23083	-0.046816	-0.15316	-0.008669	-0.046816	0.031938	-0.008669	0	0	0	-0.13889	0.028948	0.055799	-0.10615	0.02559	0.17036	-0.16132	-0.081991	0.063907
288	2.5568	-0.079568	-0.012403	0.16404	-0.11878	-0.25713	0.20888	-0.095486	-0.25213	0.23072	-0.046816	-0.15316	-0.008669	-0.046816	0.031938	-0.008669	0	0	0	-0.1389	0.028962	0.055809	-0.1062	0.025555	0.17037	-0.16134	-0.081978	0.063798
289	2.5657	-0.079662	-0.012419	0.16404	-0.11897	-0.25715	0.20872	-0.095718	-0.25214	0.23062	-0.046816	-0.15316	-0.008669	-0.046816	0.031938	-0.008669	0	0	0	-0.1389	0.028978	0.055814	-0.10625	0.025521	0.17038	-0.16135	-0.081962	0.063691
290	2.5746	-0.079754	-0.012435	0.16403	-0.11916	-0.25715	0.20856	-0.095948	-0.25214	0.23052	-0.046816	-0.15316	-0.008669	-0.046816	0.031938	-0.008669	0	0	0	-0.1389	0.028995	0.055815	-0.10629	0.025488	0.17038	-0.16137	-0.081945	0.063586
291	2.5835	-0.079845	-0.012451	0.16401	-0.11935	-0.25716	0.2084	-0.096178	-0.25214	0.23041	-0.046816	-0.15316	-0.008669	-0.046816	0.031938	-0.008669	0	0	0	-0.13889	0.029014	0.055812	-0.10633	0.025455	0.17038	-0.16138	-0.081927	0.063482
292	2.5924	-0.079935	-0.012465	0.164	-0.11954	-0.25716	0.20825	-0.096408	-0.25214	0.23031	-0.046816	-0.15316	-0.008669	-0.046816	0.031938	-0.008669	0	0	0	-0.13889	0.029034	0.055805	-0.10637	0.025425	0.17038	-0.16139	-0.081908	0.06338
293	2.6013	-0.080023	-0.01248	0.16398	-0.11972	-0.25715	0.20809	-0.096636	-0.25213	0.23021	-0.046816	-0.15316	-0.008669	-0.046816	0.031938	-0.008669	0	0	0	-0.13889	0.029055	0.055795	-0.10641	0.025395	0.17037	-0.1614	-0.081887	0.063281
294	2.6102	-0.080109	-0.012494	0.16395	-0.1199	-0.25714	0.20794	-0.096862	-0.25212	0.23011	-0.046816	-0.15316	-0.008669	-0.046816	0.031938	-0.008669	0	0	0	-0.13889	0.029078	0.055781	-0.10645	0.025366	0.17036	-0.16141	-0.081865	0.063183
295	2.6192	-0.080194	-0.012508	0.16392	-0.12008	-0.25713	0.20778	-0.097087	-0.2521	0.23002	-0.046816	-0.15316	-0.008669	-0.046816	0.031938	-0.008669	0	0	0	-0.13888	0.029102	0.055763	-0.10649	0.025338	0.17035	-0.16142	-0.081842	0.063087
296	2.6281	-0.080277	-0.012521	0.16389	-0.12026	-0.25711	0.20763	-0.09731	-0.25208	0.22992	-0.046816	-0.15316	-0.008669	-0.046816	0.031938	-0.008669	0	0	0	-0.13888	0.029127	0.055743	-0.10652	0.025312	0.17033	-0.16143	-0.081817	0.062993
297	2.637	-0.080359	-0.012533	0.16386	-0.12043	-0.25709	0.20748	-0.097532	-0.25206	0.22983	-0.046816	-0.15316	-0.008669	-0.046816	0.031938	-0.008669	0	0	0	-0.13887	0.029153	0.05572	-0.10655	0.025286	0.17032	-0.16144	-0.081792	0.062902
